<svg xmlns="http://www.w3.org/2000/svg" width="69.29" height="74.239" viewBox="0 0 69.29 74.239"><path d="M32,84.052a6.194,6.194,0,0,0,6.187,6.187H83.967a17.321,17.321,0,0,0,7.424-32.971V32.085a1.237,1.237,0,0,0-.362-.875L76.181,16.362A1.237,1.237,0,0,0,75.306,16H38.187A6.194,6.194,0,0,0,32,22.187ZM98.815,72.917A14.848,14.848,0,1,1,83.967,58.069,14.848,14.848,0,0,1,98.815,72.917ZM76.543,20.224,87.167,30.848H80.255a3.716,3.716,0,0,1-3.712-3.712ZM34.475,22.187a3.716,3.716,0,0,1,3.712-3.712H74.069v8.661a6.194,6.194,0,0,0,6.187,6.187h8.661V56.316A17.32,17.32,0,0,0,75.054,87.764H38.187a3.716,3.716,0,0,1-3.712-3.712Z" transform="translate(-32 -16)"/><path d="M160,161.237a1.237,1.237,0,0,0,1.237,1.237h29.7a1.237,1.237,0,0,0,0-2.475h-29.7A1.237,1.237,0,0,0,160,161.237Z" transform="translate(-140.203 -137.728)"/><path d="M81.237,210.475h24.746a1.237,1.237,0,1,0,0-2.475H81.237a1.237,1.237,0,0,0,0,2.475Z" transform="translate(-72.576 -178.304)"/><path d="M219.136,256h-9.9a1.237,1.237,0,1,0,0,2.475h9.9a1.237,1.237,0,1,0,0-2.475Z" transform="translate(-180.779 -218.88)"/><path d="M81.237,306.475h22.272a1.237,1.237,0,1,0,0-2.475H81.237a1.237,1.237,0,0,0,0,2.475Z" transform="translate(-72.576 -259.457)"/><path d="M81.237,162.475h7.424a1.237,1.237,0,1,0,0-2.475H81.237a1.237,1.237,0,0,0,0,2.475Z" transform="translate(-72.576 -137.728)"/><path d="M285.61,208H273.237a1.237,1.237,0,0,0,0,2.475H285.61a1.237,1.237,0,1,0,0-2.475Z" transform="translate(-234.88 -178.304)"/><path d="M81.237,258.475H96.085a1.237,1.237,0,1,0,0-2.475H81.237a1.237,1.237,0,1,0,0,2.475Z" transform="translate(-72.576 -218.88)"/><path d="M182.187,400h-4.949a1.237,1.237,0,1,0,0,2.475h4.949a1.237,1.237,0,1,0,0-2.475Z" transform="translate(-153.728 -340.609)"/><path d="M81.237,402.475h9.9a1.237,1.237,0,1,0,0-2.475h-9.9a1.237,1.237,0,1,0,0,2.475Z" transform="translate(-72.576 -340.609)"/><path d="M81.237,354.475h7.424a1.237,1.237,0,1,0,0-2.475H81.237a1.237,1.237,0,0,0,0,2.475Z" transform="translate(-72.576 -300.033)"/><path d="M81.237,114.475H96.085a1.237,1.237,0,1,0,0-2.475H81.237a1.237,1.237,0,0,0,0,2.475Z" transform="translate(-72.576 -97.152)"/><path d="M168.661,352h-7.424a1.237,1.237,0,0,0,0,2.475h7.424a1.237,1.237,0,1,0,0-2.475Z" transform="translate(-140.203 -300.033)"/><path d="M320.445,328.286a1.237,1.237,0,0,0-.159,1.743h0s4.691,5.637,6.182,7.418a1.23,1.23,0,0,0,.825.444,1.027,1.027,0,0,0,.131.007h8.661a1.237,1.237,0,1,0,0-2.475H328l-5.815-6.979A1.237,1.237,0,0,0,320.445,328.286Z" transform="translate(-275.456 -279.744)"/></svg>