<svg xmlns="http://www.w3.org/2000/svg" width="66.375" height="72" viewBox="0 0 66.375 72"><defs><style>.a{fill:#fff;}</style></defs><g transform="translate(-20)"><g transform="translate(20 16.594)"><path class="a" d="M80.469,118H72.242a1.406,1.406,0,0,0,0,2.813h8.227a3.1,3.1,0,0,1,3.094,3.094v16.048a3.337,3.337,0,0,1-3.333,3.333H78.781V132.906A5.913,5.913,0,0,0,72.875,127H52.133v-4.289a1.406,1.406,0,0,0-2.812,0V127H25.906a3.094,3.094,0,0,1,0-6.187h9.305a1.406,1.406,0,0,0,0-2.812H25.906A5.913,5.913,0,0,0,20,123.906c0,.078,0,.156.006.233,0,.039-.006.078-.006.117V167.5a5.913,5.913,0,0,0,5.906,5.906l54.563,0a5.913,5.913,0,0,0,5.906-5.906V123.906A5.913,5.913,0,0,0,80.469,118Zm-4.5,49.5a3.1,3.1,0,0,1-3.029,3.092h-.065l-.033,0H25.906a3.1,3.1,0,0,1-3.094-3.094V128.935a5.871,5.871,0,0,0,3.094.878H72.875a3.1,3.1,0,0,1,3.094,3.094v10.381H63.313a8.719,8.719,0,1,0,0,17.438H75.969Zm7.594,0a3.1,3.1,0,0,1-3.094,3.094H77.9a5.87,5.87,0,0,0,.877-3.092v-6.775h.844a6.712,6.712,0,0,0,3.938-1.273Zm0-13.523a3.942,3.942,0,0,1-3.937,3.938H63.313a5.906,5.906,0,0,1,0-11.812H80.229a6.107,6.107,0,0,0,3.333-.986Z" transform="translate(-20 -118)"/></g><g transform="translate(54.033 9.164)"><path class="a" d="M268.622,65.168a6.607,6.607,0,1,0,6.607,6.607A6.615,6.615,0,0,0,268.622,65.168Zm0,10.4a3.795,3.795,0,1,1,3.795-3.795A3.8,3.8,0,0,1,268.622,75.57Z" transform="translate(-262.015 -65.168)"/></g><g transform="translate(40.393)"><path class="a" d="M171.622,0a6.607,6.607,0,1,0,6.607,6.607A6.615,6.615,0,0,0,171.622,0Zm0,10.4a3.795,3.795,0,1,1,3.795-3.795A3.8,3.8,0,0,1,171.622,10.4Z" transform="translate(-165.015)"/></g><g transform="translate(65.186 0.139)"><path class="a" d="M347.141,3.189h-.8v-.8a1.406,1.406,0,1,0-2.812,0v.8h-.8a1.406,1.406,0,0,0,0,2.813h.8v.8a1.406,1.406,0,0,0,2.813,0V6h.8a1.406,1.406,0,1,0,0-2.812Z" transform="translate(-341.326 -0.985)"/></g><g transform="translate(41.047 13.746)"><path class="a" d="M171.073,97.75a1.406,1.406,0,0,0-1.406,1.406v5.7a1.406,1.406,0,0,0,2.813,0v-5.7A1.406,1.406,0,0,0,171.073,97.75Z" transform="translate(-169.667 -97.75)"/></g><g transform="translate(62.761 49.369)"><path class="a" d="M326.48,351.482a1.405,1.405,0,1,0,.412.994A1.42,1.42,0,0,0,326.48,351.482Z" transform="translate(-324.08 -351.07)"/></g><g transform="translate(27.922 36.563)"><path class="a" d="M77.74,260a1.406,1.406,0,0,0-1.406,1.406v11.578a1.406,1.406,0,0,0,2.813,0V261.406A1.406,1.406,0,0,0,77.74,260Z" transform="translate(-76.334 -260)"/></g><g transform="translate(27.921 52.993)"><path class="a" d="M78.73,377.252a1.406,1.406,0,1,0,.412.994A1.415,1.415,0,0,0,78.73,377.252Z" transform="translate(-76.33 -376.84)"/></g></g></svg>